<svg width="79" height="79" viewBox="0 0 79 79" fill="none" xmlns="http://www.w3.org/2000/svg">
<path fill-rule="evenodd" clip-rule="evenodd" d="M11.1357 47.6358L10.1947 45.3435L9.47873 47.6358H11.1357ZM40.0871 47.6358L39.806 42.9878L38.4301 47.6358H40.0871ZM23.3757 39.0393V25.4579H7.68115V39.193L8.20657 37.4422L8.32707 37.0405H12.869L12.6497 37.768C12.3038 38.9123 11.7993 40.5836 11.2521 42.3984L16.4002 37.2077L16.5654 37.0405H22.361L21.3159 38.0168L14.1874 44.6763L15.5739 47.6358H20.7822L23.3757 39.0393ZM25.0602 25.4579V37.0393H28.2291C30.664 37.0098 33.1817 36.9794 34.4674 38.5049C35.1993 39.3738 35.4075 40.5934 35.1047 42.2336C34.826 43.7423 33.4977 47.2489 27.1984 47.2423L25.15 47.2428L25.0598 47.5444V47.6362H34.4842L37.6084 37.4377L37.7305 37.0389H40.7548V25.4579H25.0602ZM49.2382 47.6358L50.5074 43.366L47.7476 47.6358H49.2382Z" fill="#445364"/>
<path fill-rule="evenodd" clip-rule="evenodd" d="M53.6467 47.6358H55.4423C55.4382 46.8407 55.5615 45.928 55.88 44.8796C56.5107 42.8033 57.28 41.2484 58.1349 40.0828V25.4579H42.4399V37.0385H43.5375L43.5863 37.5479C43.6113 37.8028 44.0769 42.707 43.9609 47.3604C45.0535 45.1349 46.9675 41.7316 50.1799 37.2725L50.3487 37.038H56.2874L56.1128 37.7385L53.6467 47.6358ZM59.8198 25.4579V38.3336C61.5616 36.9967 63.499 36.7225 65.3318 36.7225C67.6741 36.7225 69.5192 37.4995 70.5254 38.9102C71.2987 39.9947 71.4922 41.3439 71.0561 42.6115L70.9249 42.9927L70.5225 42.9923L67.44 42.9886L66.538 42.9873L66.931 42.1828C66.9384 42.1627 66.9503 42.1074 66.9589 42.0709C66.97 42.0164 66.9839 41.9554 67.0027 41.8914C67.1638 41.3504 67.1478 40.9377 66.9556 40.666C66.6867 40.2873 66.015 40.0615 65.0129 40.0143C62.7318 39.9065 61.2473 41.4787 60.2014 45.112C59.9899 45.8472 59.8628 46.5136 59.8202 47.1026V47.6358H65.3113L65.3322 47.5682H61.9871L62.2153 46.8366L62.9231 44.5677L63.0465 44.1714H70.5614L70.3606 44.8878L69.5897 47.6358H75.5156V25.4579H59.8198Z" fill="#445364"/>
<path fill-rule="evenodd" clip-rule="evenodd" d="M49.2387 47.6358L50.508 43.366L47.748 47.6358H49.2387Z" fill="#445364"/>
<path fill-rule="evenodd" clip-rule="evenodd" d="M55.5652 37.0386H50.3487L50.1798 37.273C46.9674 41.7317 45.0535 45.1355 43.9608 47.3609C44.0768 42.7076 43.6108 37.8034 43.5862 37.5484L43.5375 37.039H37.7312L37.6091 37.4378L33.0159 52.4311L32.793 53.1602H36.7943L36.9135 52.7565L39.8058 42.9879L40.3886 52.6299L40.4206 53.1602H44.178L44.3453 52.9024L50.5073 43.3658L47.8105 52.4352L47.5953 53.1602H52.27L52.3766 52.7324L56.1123 37.739L56.2869 37.0386H55.5652Z" fill="#445364"/>
<path fill-rule="evenodd" clip-rule="evenodd" d="M51.8294 52.5959H48.3523L52.1696 39.7551L43.8719 52.5959H40.9517L40.1759 39.753L36.3733 52.5959H33.5557L38.1484 37.603H43.0247C43.0247 37.603 43.769 45.2986 43.1977 50.5737C43.1977 50.5737 44.6481 45.9138 50.6372 37.603H55.5647L51.8294 52.5959Z" fill="#606E7E"/>
<path fill-rule="evenodd" clip-rule="evenodd" d="M70.5252 38.9101C69.519 37.4994 67.6739 36.7224 65.3317 36.7224C61.8841 36.7224 58.0652 37.6913 55.8799 44.8799C54.9315 47.9992 55.6901 49.9468 56.4946 51.0316C57.866 52.8829 60.2472 53.5419 62.0181 53.5419C63.9112 53.5419 66.8932 53.2329 67.901 52.8333L68.1604 52.7304L68.2358 52.4616L70.3605 44.8881L70.5613 44.1717H63.0464L62.923 44.568L62.2152 46.8369L61.987 47.5685H65.3321L64.546 50.048C64.3907 50.112 63.9177 50.2456 62.6689 50.2497C61.5468 50.2534 60.7484 49.9525 60.298 49.3558C59.673 48.5291 59.6402 47.0615 60.2013 45.1123C61.2476 41.4794 62.7316 39.9073 65.0128 40.0147C66.0149 40.0618 66.6866 40.2876 66.9555 40.6663C67.1477 40.938 67.1637 41.3507 67.0026 41.8917C66.9833 41.9553 66.9698 42.0167 66.9588 42.0712C66.9502 42.1081 66.9379 42.1635 66.9309 42.1831L66.5378 42.9877L67.4399 42.9889L70.5223 42.9926L70.9248 42.993L71.056 42.6118C71.4924 41.3438 71.2986 39.9946 70.5252 38.9101Z" fill="#445364"/>
<path fill-rule="evenodd" clip-rule="evenodd" d="M70.5228 42.4283L67.4403 42.4242C67.4907 42.3214 67.5075 42.1722 67.5428 42.0525C68.076 40.2648 66.976 39.5426 65.039 39.4508C62.1795 39.316 60.6323 41.5771 59.6589 44.9563C58.6101 48.5998 59.4925 50.824 62.6713 50.8134C65.1968 50.8048 65.0624 50.2847 65.0624 50.2847L66.103 47.0047H62.7537L63.4607 44.7358H69.8174L67.6928 52.3093C66.8436 52.6462 64.0234 52.9786 62.018 52.9786C59.0011 52.9786 54.6173 50.9679 56.4194 45.0444C58.5744 37.9573 62.3143 37.2864 65.332 37.2864C69.7424 37.2864 71.313 40.1312 70.5228 42.4283Z" fill="#606E7E"/>
<path fill-rule="evenodd" clip-rule="evenodd" d="M22.3616 37.0402H16.566L16.4008 37.2074L11.2528 42.3981C11.7995 40.5833 12.3044 38.912 12.6503 37.7677L12.8696 37.0402H8.32773L8.20723 37.4419L3.70429 52.4422L3.48584 53.168H8.0642L8.15887 52.7209C8.21297 52.5037 9.17815 49.2872 10.2421 45.7511L13.0942 52.8151L13.2364 53.1676H18.166L17.7898 52.3647L14.1877 44.6756L21.3161 38.0161L22.3616 37.0402Z" fill="#445364"/>
<path fill-rule="evenodd" clip-rule="evenodd" d="M7.60684 52.6048H4.24365L8.74661 37.6045H12.1094C12.1094 37.6045 7.672 52.297 7.60684 52.6048ZM10.2323 44.2305H10.2298L16.8013 37.6045H20.9317L13.5033 44.5444L17.2796 52.6048H13.6172L10.2303 44.2157L10.2323 44.2305Z" fill="#606E7E"/>
<path fill-rule="evenodd" clip-rule="evenodd" d="M34.4679 38.505C33.1823 36.9792 30.6646 37.0099 28.2297 37.0394H23.9792L23.8587 37.4407L19.334 52.4414L19.1147 53.1681H23.3788L23.4989 52.7656L25.1505 47.2425L27.1989 47.2421C33.4983 47.2491 34.8266 43.742 35.1053 42.2334C35.4081 40.5936 35.1999 39.3739 34.4679 38.505Z" fill="#445364"/>
<path fill-rule="evenodd" clip-rule="evenodd" d="M34.5505 42.1312C34.1033 44.5509 31.9889 46.6833 27.1991 46.678L24.731 46.6792L22.9593 52.6039H19.8735L24.3982 37.6032H28.2208C31.6791 37.5614 35.4046 37.5085 34.5505 42.1312Z" fill="#606E7E"/>
<path fill-rule="evenodd" clip-rule="evenodd" d="M25.314 44.4764C26.4283 44.4764 27.2427 44.4941 27.9927 44.4801C30.2469 44.4391 30.9379 43.66 31.4461 42.1317C32.3277 39.4797 30.071 39.7588 26.6886 39.7624L25.314 44.4764Z" fill="#445364"/>
</svg>
