<svg width="77" height="76" viewBox="0 0 77 76" fill="none" xmlns="http://www.w3.org/2000/svg">
<path fill-rule="evenodd" clip-rule="evenodd" d="M7.77189 51.7988L5.75058 57.5904L3.68293 51.7988H1.13232L4.28493 60.2676H7.08521L10.2558 51.7988H7.77189ZM23.203 56.0436C23.203 55.5909 23.339 55.1484 23.5938 54.772C23.8486 54.3956 24.2108 54.1022 24.6346 53.929C25.0583 53.7558 25.5246 53.7105 25.9744 53.7988C26.4243 53.8872 26.8375 54.1052 27.1618 54.4253C27.486 54.7455 27.7069 55.1533 27.7963 55.5973C27.8857 56.0414 27.8397 56.5016 27.6642 56.9198C27.4886 57.338 27.1913 57.6954 26.8099 57.9469C26.4285 58.1983 25.9801 58.3325 25.5215 58.3324C24.9066 58.3321 24.317 58.0909 23.8823 57.6617C23.4475 57.2325 23.2032 56.6505 23.203 56.0436ZM27.7429 48.3457V52.5034C27.7381 52.501 27.7349 52.4979 27.7313 52.4951C27.0267 51.9814 26.165 51.6612 25.2323 51.6612C22.8606 51.6612 20.938 53.6164 20.938 56.029C20.938 58.4409 22.8602 60.3961 25.2323 60.3961C26.1702 60.3961 27.0375 60.0905 27.7429 59.572V60.279H29.948V48.3457H27.7429ZM33.6914 56.0436C33.7027 55.4441 33.9519 54.8728 34.3855 54.4527C34.8191 54.0327 35.4024 53.7973 36.0099 53.7973C36.6175 53.7973 37.2008 54.0327 37.6344 54.4527C38.068 54.8728 38.3172 55.4441 38.3285 56.0436C38.3284 56.6507 38.084 57.2329 37.649 57.6621C37.2141 58.0913 36.6242 58.3324 36.0091 58.3324C35.3944 58.332 34.8049 58.0907 34.3703 57.6615C33.9357 57.2323 33.6915 56.6504 33.6914 56.0436ZM38.2306 51.8079V52.5034L38.219 52.4951C37.5159 51.9814 36.6523 51.6612 35.7199 51.6612C33.3483 51.6612 31.4256 53.6164 31.4256 56.029C31.4256 58.4409 33.3479 60.3961 35.7199 60.3961C36.6579 60.3961 37.5243 60.0905 38.2306 59.572V60.279H40.4365V51.8083H38.2306V51.8079ZM46.4465 51.8079H45.1254C45.1254 51.8079 45.1206 51.5366 45.1206 51.2933C45.1206 50.7567 45.1206 50.075 45.9867 50.075C46.2092 50.075 46.4229 50.1121 46.4229 50.1121V48.1422C46.4229 48.1422 46.061 48.1324 45.8145 48.1422C43.7868 48.2199 42.894 48.9032 42.894 50.9038V51.8079H41.9069V53.76H42.894V60.2656H45.1254V53.76H46.4465V51.8079ZM59.7943 52.546C60.4207 51.9829 61.3351 51.632 62.3166 51.632C64.3383 51.632 65.4959 52.9028 65.5015 54.5808L65.5023 55.5295V60.268H63.2265V55.3248C63.2265 54.0805 62.3481 53.7016 61.6534 53.7016C61.0135 53.7016 59.7903 54.0497 59.859 55.5689V60.268H57.5793V51.8079H59.7943V52.546ZM69.3496 56.7005C69.4579 57.7639 70.3591 58.5394 71.4632 58.5394C72.334 58.5394 72.9113 58.1999 73.2536 57.5829H75.6364C75.2549 58.9014 73.7529 60.3922 71.5395 60.3922C68.8758 60.3922 66.9987 58.4345 66.9987 56.0196C66.9987 53.6046 69.0108 51.6462 71.5395 51.6462C74.0689 51.6462 75.8681 53.7745 75.8681 56.0196C75.8681 56.4872 75.815 56.6973 75.815 56.6973L69.3496 56.7005ZM73.4633 55.0638C73.2708 54.1034 72.4547 53.5506 71.4628 53.5506C70.4394 53.5506 69.6388 54.1389 69.4083 55.0575L73.4633 55.0638ZM16.7663 51.9273C16.362 52.0148 16 52.2358 15.7401 52.5538C15.4803 52.8718 15.3381 53.2678 15.337 53.6764C15.337 53.6949 15.3418 53.7174 15.3422 53.7347C16.6309 54.006 17.2808 54.8635 17.2808 55.9936C17.2808 57.2643 16.2282 58.2946 14.9412 58.2946C13.6541 58.2946 12.4517 57.2344 12.4517 55.6631C12.4517 53.745 14.1179 51.9443 16.4927 51.8883C16.535 51.8875 16.603 51.8891 16.6721 51.8922C16.134 51.6904 15.5631 51.5873 14.9875 51.5883C12.4397 51.5883 10.3744 53.5612 10.3744 55.9939C10.3744 58.4274 12.4397 60.3996 14.9875 60.3996C17.5357 60.3996 19.601 58.4274 19.601 55.9939C19.601 54.1629 18.4309 52.5937 16.7663 51.9273ZM51.5565 51.6249C49.0083 51.6249 46.9422 53.5971 46.9422 56.0306C46.9422 57.8613 48.1126 59.4313 49.7784 60.096C50.1825 60.0086 50.5442 59.7877 50.8038 59.4698C51.0634 59.1519 51.2054 58.7561 51.2061 58.3478C51.2061 58.3293 51.2021 58.3076 51.2013 58.2895C49.9123 58.019 49.2623 57.1614 49.2623 56.0306C49.2623 54.7591 50.3149 53.7304 51.602 53.7304C52.8891 53.7304 54.0915 54.7894 54.0915 56.361C54.0915 58.28 52.4249 60.0791 50.0509 60.1367C49.991 60.1367 49.9312 60.1351 49.8715 60.1319C50.3928 60.3275 50.9609 60.4359 51.5561 60.4359C54.1035 60.4359 56.1687 58.4629 56.1687 56.0302C56.1691 53.5971 54.1039 51.6249 51.5565 51.6249ZM44.0736 16.6534C41.4803 17.2168 39.5265 19.5119 39.5265 22.2593C39.5265 22.3184 39.5404 22.3886 39.5428 22.4477C43.6438 23.3152 45.7118 26.0625 45.7118 29.6887C45.7118 33.7612 42.3623 37.0641 38.2665 37.0641C34.1716 37.0641 30.3459 33.6662 30.3459 28.6281C30.3459 22.4773 35.6472 16.7078 43.2016 16.5248C43.3382 16.5221 43.5535 16.5272 43.7744 16.5367C42.0631 15.8919 40.2465 15.5626 38.4147 15.5652C30.3079 15.5652 23.7351 21.8886 23.7351 29.6891C23.7351 37.49 30.3079 43.813 38.4147 43.813C46.5204 43.813 53.0928 37.4896 53.0928 29.6891C53.0928 23.8183 49.3706 18.7841 44.0736 16.6534Z" fill="#445364"/>
</svg>
